<?xml version="1.0" standalone="no"?>
<!DOCTYPE svg PUBLIC "-//W3C//DTD SVG 20010904//EN"
 "http://www.w3.org/TR/2001/REC-SVG-20010904/DTD/svg10.dtd">
<svg version="1.0" xmlns="http://www.w3.org/2000/svg"
 width="1600.000000pt" height="1600.000000pt" viewBox="0 0 1600.000000 1600.000000"
 preserveAspectRatio="xMidYMid meet">

<g transform="translate(0.000000,1600.000000) scale(0.100000,-0.100000)"
fill="#000000" stroke="none">
<path d="M6520 13569 c-540 -42 -977 -324 -1302 -842 l-47 -75 -141 64 c-373
172 -711 227 -1040 170 -129 -23 -230 -59 -397 -141 -252 -125 -477 -283 -928
-654 -116 -95 -218 -176 -228 -180 -10 -4 -529 -456 -1153 -1006 -1238 -1089
-1194 -1047 -1253 -1208 l-26 -72 0 -2930 c0 -2847 1 -2932 19 -2985 81 -236
263 -395 494 -430 98 -16 3234 -7 3417 9 531 46 911 120 1275 247 56 19 105
33 108 30 3 -3 16 -47 28 -96 56 -221 180 -372 389 -476 299 -148 752 -135
1147 31 45 19 83 35 84 35 1 0 14 -39 29 -87 103 -334 371 -583 732 -680 87
-23 117 -27 268 -27 187 -1 283 16 433 75 357 142 704 439 912 785 l52 84 69
-60 c225 -193 451 -280 730 -281 127 0 206 10 314 40 361 101 737 405 1064
861 33 47 61 91 61 98 0 7 194 378 430 825 237 446 435 827 440 847 6 19 13
63 17 98 l6 62 781 0 c634 0 801 3 885 15 841 120 1481 792 1561 1640 14 152
14 4408 0 4560 -64 670 -475 1242 -1086 1509 -125 55 -268 98 -424 128 l-115
22 -3750 2 c-2062 1 -3797 -2 -3855 -7z m7619 -1238 c218 -81 376 -280 400
-503 l7 -68 -4243 0 -4243 0 0 28 c1 58 31 168 67 241 73 148 234 277 395 317
43 10 782 12 3803 11 l3750 -2 64 -24z m-9644 -691 c153 -77 251 -109 328
-110 l27 0 0 -1619 0 -1619 -332 -180 c-183 -99 -362 -194 -398 -212 -138 -69
-268 -236 -305 -392 -32 -136 -9 -305 57 -431 50 -94 166 -206 260 -251 197
-94 401 -86 588 25 107 64 2390 1270 2539 1341 378 182 640 279 904 333 250
52 297 47 379 -45 72 -79 102 -140 95 -193 -3 -22 -33 -95 -66 -161 -93 -186
-238 -377 -465 -613 -124 -130 -1203 -1114 -1216 -1110 -27 7 -410 -365 -1011
-978 -123 -126 -269 -268 -324 -314 -431 -360 -852 -527 -1505 -596 -244 -26
-810 -36 -1845 -33 l-990 3 -3 2376 -2 2376 1002 879 c551 483 1006 878 1010
876 5 -1 88 62 186 141 280 227 514 399 676 497 64 39 189 90 221 90 18 0 95
-33 190 -80z m10050 -2960 l0 -1255 -23 -75 c-59 -191 -201 -339 -395 -412
l-62 -23 -2429 -3 c-2318 -2 -2428 -1 -2415 15 7 10 34 43 60 73 138 165 275
370 365 550 244 486 229 1077 -38 1526 -201 338 -527 558 -955 645 -152 31
-460 38 -628 14 -460 -63 -925 -245 -1739 -679 -119 -64 -219 -116 -221 -116
-3 0 -5 225 -5 500 l0 500 4243 -2 4242 -3 0 -1255z m-4855 -2990 c0 -14 -159
-331 -175 -350 -7 -8 -199 -377 -425 -820 -323 -630 -427 -825 -480 -895 -158
-214 -306 -352 -457 -427 -70 -35 -91 -41 -145 -40 -75 0 -120 19 -147 63 -28
46 -46 178 -45 329 l1 135 456 918 c274 551 460 937 466 968 6 27 11 68 11 89
l0 40 470 0 c310 0 470 -3 470 -10z m1880 7 c0 -19 -723 -1386 -762 -1440
-250 -348 -525 -542 -691 -488 -71 24 -119 150 -119 314 -1 194 10 231 154
527 71 146 200 402 286 570 169 327 201 402 202 466 0 22 3 44 7 47 6 7 923
10 923 4z m-4238 -963 l-349 -739 -64 -66 c-166 -170 -431 -268 -694 -256
-127 5 -143 10 -153 46 -9 33 -9 172 1 231 7 41 12 48 55 72 68 39 286 216
446 364 77 71 295 291 485 488 302 314 609 611 619 601 2 -1 -154 -335 -346
-741z"/>
</g>
</svg>
