<?xml version="1.0" standalone="no"?>
<!DOCTYPE svg PUBLIC "-//W3C//DTD SVG 20010904//EN"
 "http://www.w3.org/TR/2001/REC-SVG-20010904/DTD/svg10.dtd">
<svg version="1.0" xmlns="http://www.w3.org/2000/svg"
 width="840.000000pt" height="1060.000000pt" viewBox="0 0 840.000000 1060.000000"
 preserveAspectRatio="xMidYMid meet">

<g transform="translate(0.000000,1060.000000) scale(0.100000,-0.100000)"
fill="#000000" stroke="none">
<path d="M5411 10187 c-34 -16 -251 -348 -1256 -1917 -1777 -2773 -1989 -3112
-1987 -3171 1 -39 18 -66 52 -84 43 -22 313 -102 712 -211 321 -87 776 -215
871 -245 22 -8 37 -19 37 -29 0 -20 -89 -357 -458 -1735 -561 -2092 -579
-2159 -589 -2262 -6 -61 -5 -63 30 -98 29 -29 42 -35 76 -35 53 0 99 20 132
56 25 27 653 981 2304 3499 855 1303 830 1265 868 1338 51 97 36 161 -46 197
-51 23 -307 95 -827 235 -217 58 -484 131 -592 162 -186 52 -198 57 -198 79 0
47 222 907 587 2274 364 1363 450 1698 468 1830 6 38 3 50 -16 74 -39 50 -114
69 -168 43z"/>
</g>
</svg>
