<?xml version="1.0" standalone="no"?>
<!DOCTYPE svg PUBLIC "-//W3C//DTD SVG 20010904//EN"
 "http://www.w3.org/TR/2001/REC-SVG-20010904/DTD/svg10.dtd">
<svg version="1.0" xmlns="http://www.w3.org/2000/svg"
 width="222.000000pt" height="227.000000pt" viewBox="0 0 222.000000 227.000000"
 preserveAspectRatio="xMidYMid meet">

<g transform="translate(0.000000,227.000000) scale(0.100000,-0.100000)"
fill="#000000" stroke="none">
<path d="M1090 2255 c0 -3 20 -54 45 -112 25 -58 45 -106 45 -106 0 -1 -84 -2
-187 -2 -175 -1 -194 -3 -276 -28 -176 -54 -329 -148 -450 -276 -112 -120
-184 -245 -233 -406 -22 -76 -27 -114 -31 -245 -4 -131 -2 -169 15 -247 41
-183 136 -355 269 -485 87 -85 113 -106 197 -156 154 -92 314 -135 506 -135
140 0 242 18 359 63 l73 29 32 -30 c77 -73 210 -115 336 -106 94 6 173 36 249
93 250 188 237 585 -25 757 l-41 27 9 63 c19 128 -10 322 -70 471 -36 91 -129
241 -175 284 l-25 23 -36 -71 -36 -72 39 -56 c103 -152 141 -270 148 -459 l6
-133 -70 0 c-134 0 -244 -44 -336 -136 -117 -116 -164 -286 -123 -445 8 -31
16 -62 18 -70 2 -10 -23 -23 -82 -44 -81 -28 -92 -29 -250 -29 -153 0 -171 2
-245 27 -283 96 -487 305 -567 584 -31 106 -33 334 -4 433 43 147 108 261 210
369 148 155 340 245 552 258 91 6 204 -3 204 -15 0 -4 -34 -31 -75 -60 -126
-89 -85 -94 162 -20 131 38 173 55 173 67 -1 24 -273 395 -293 399 -9 2 -17 1
-17 -3z m859 -1532 c0 -24 -38 -132 -98 -283 l-98 -245 -67 -3 c-65 -3 -67 -2
-61 18 4 11 44 113 90 225 l83 205 -114 0 -113 0 -5 43 c-10 83 -26 77 191 77
l193 0 -1 -37z"/>
<path d="M402 1464 c-49 -24 -81 -61 -96 -109 -5 -18 3 -25 51 -49 42 -21 58
-25 62 -15 8 25 51 59 74 59 69 0 75 -92 12 -187 -20 -31 -75 -95 -121 -143
l-84 -87 0 -57 0 -56 210 0 210 0 0 69 0 70 -37 -2 c-21 -1 -72 0 -115 1 l-76
2 63 61 c137 131 185 308 108 400 -60 71 -169 89 -261 43z"/>
<path d="M748 1272 c-104 -183 -118 -212 -118 -254 l0 -48 150 0 150 0 0 -75
0 -75 70 0 69 0 3 73 3 72 38 3 37 3 0 70 0 69 -40 0 -40 0 0 70 0 70 -70 0
-70 0 0 -70 0 -70 -55 0 -56 0 15 28 c8 15 55 98 104 185 l91 157 -82 0 -82 0
-117 -208z"/>
<path d="M1387 1413 c-4 -8 -212 -640 -267 -815 l-28 -88 38 0 c38 0 38 0 59
62 11 35 76 237 145 449 69 212 126 389 126 392 0 10 -68 9 -73 0z"/>
</g>
</svg>
